# xmcd
#
# Track frame offsets:
#	150
#	19179
#	39208
#	51411
#	70715
#	90640
#	107253
#	124525
#	142431
#	161296
#	177737
#	194200
#	210016
#	227371
#	252503
#	266912
#	285625
#
# Disc length: 4067 seconds
#
# Revision: 1
# Processed by: cddbd v1.5.1PL0 Copyright (c) Steve Scherf et al.
# Submitted via: audiograbber 1.83.01
#
DISCID=f30fe111
DTITLE=mixed male - CKC022
DYEAR=1900
DGENRE=Karaoke
TTITLE0=Kenny Rogers - Lady
TTITLE1=John Michael Montogomery - I Swear
TTITLE2=John Michael Montogomery - Sold (The Grundy County Auction)
TTITLE3=Jimmy Buffet - Margaritaville
TTITLE4=Keith Whitley - Don't Close You Eyes
TTITLE5=Conway Twitty - I'd Love To Lay You Down
TTITLE6=George Strait - I Close My Heart
TTITLE7=Clint Black - Desperado
TTITLE8=Garth Brooks - Friends In Low Places
TTITLE9=Billy Ray Cyrus - Achy Breaky Heart
TTITLE10=Sammy Kershaw - Third Rate Romance
TTITLE11=Confederate Railroad - Trashy Woman
TTITLE12=Charlie Daniels Band - Devil Went Down To Georgia
TTITLE13=David Allen Coe - You Never Even Called Me By My Name
TTITLE14=Hank Williams Jr - All My Rowdy Friends Are Coming Over Tonight
TTITLE15=Toby Keith - Whiskey Girl
TTITLE16=Hank Williams Jr - Family Tradition
EXTD=
EXTT0=
EXTT1=
EXTT2=
EXTT3=
EXTT4=
EXTT5=
EXTT6=
EXTT7=
EXTT8=
EXTT9=
EXTT10=
EXTT11=
EXTT12=
EXTT13=
EXTT14=
EXTT15=
EXTT16=
PLAYORDER=
